<svg xmlns="http://www.w3.org/2000/svg" xmlns:xlink="http://www.w3.org/1999/xlink" width="500" zoomAndPan="magnify" viewBox="0 0 375 374.999991" height="500" preserveAspectRatio="xMidYMid meet" version="1.2"><defs><clipPath id="8f9cfbb60b"><path d="M 40.5 128.355469 L 161.335938 128.355469 L 161.335938 241.347656 L 40.5 241.347656 Z M 40.5 128.355469 "/></clipPath><clipPath id="61e39698cb"><path d="M 69 128.355469 L 132.835938 128.355469 C 140.394531 128.355469 147.644531 131.355469 152.988281 136.703125 C 158.332031 142.046875 161.335938 149.296875 161.335938 156.855469 L 161.335938 212.847656 C 161.335938 220.40625 158.332031 227.65625 152.988281 233 C 147.644531 238.347656 140.394531 241.347656 132.835938 241.347656 L 69 241.347656 C 61.441406 241.347656 54.191406 238.347656 48.847656 233 C 43.503906 227.65625 40.5 220.40625 40.5 212.847656 L 40.5 156.855469 C 40.5 149.296875 43.503906 142.046875 48.847656 136.703125 C 54.191406 131.355469 61.441406 128.355469 69 128.355469 Z M 69 128.355469 "/></clipPath><linearGradient x1="0.000687186" gradientTransform="matrix(0.441383,0,0,0.441383,40.499699,128.354567)" y1="128" x2="273.766999" gradientUnits="userSpaceOnUse" y2="128" id="3036984617"><stop style="stop-color:#6e337f;stop-opacity:1;" offset="0"/><stop style="stop-color:#6e337f;stop-opacity:1;" offset="0.0078125"/><stop style="stop-color:#6d337e;stop-opacity:1;" offset="0.015625"/><stop style="stop-color:#6c337d;stop-opacity:1;" offset="0.0234375"/><stop style="stop-color:#6c327d;stop-opacity:1;" offset="0.03125"/><stop style="stop-color:#6b327c;stop-opacity:1;" offset="0.0390625"/><stop style="stop-color:#6b327c;stop-opacity:1;" offset="0.046875"/><stop style="stop-color:#6a327b;stop-opacity:1;" offset="0.0546875"/><stop style="stop-color:#69327a;stop-opacity:1;" offset="0.0625"/><stop style="stop-color:#69327a;stop-opacity:1;" offset="0.0703125"/><stop style="stop-color:#683179;stop-opacity:1;" offset="0.078125"/><stop style="stop-color:#673178;stop-opacity:1;" offset="0.0859375"/><stop style="stop-color:#673178;stop-opacity:1;" offset="0.09375"/><stop style="stop-color:#663177;stop-opacity:1;" offset="0.101562"/><stop style="stop-color:#663177;stop-opacity:1;" offset="0.109375"/><stop style="stop-color:#653176;stop-opacity:1;" offset="0.117188"/><stop style="stop-color:#643075;stop-opacity:1;" offset="0.125"/><stop style="stop-color:#643075;stop-opacity:1;" offset="0.132812"/><stop style="stop-color:#633074;stop-opacity:1;" offset="0.140625"/><stop style="stop-color:#633073;stop-opacity:1;" offset="0.148438"/><stop style="stop-color:#623073;stop-opacity:1;" offset="0.15625"/><stop style="stop-color:#612f72;stop-opacity:1;" offset="0.164062"/><stop style="stop-color:#612f72;stop-opacity:1;" offset="0.171875"/><stop style="stop-color:#602f71;stop-opacity:1;" offset="0.179688"/><stop style="stop-color:#5f2f70;stop-opacity:1;" offset="0.1875"/><stop style="stop-color:#5f2f70;stop-opacity:1;" offset="0.195312"/><stop style="stop-color:#5e2f6f;stop-opacity:1;" offset="0.203125"/><stop style="stop-color:#5e2e6e;stop-opacity:1;" offset="0.210938"/><stop style="stop-color:#5d2e6e;stop-opacity:1;" offset="0.21875"/><stop style="stop-color:#5c2e6d;stop-opacity:1;" offset="0.226562"/><stop style="stop-color:#5c2e6d;stop-opacity:1;" offset="0.234375"/><stop style="stop-color:#5b2e6c;stop-opacity:1;" offset="0.242188"/><stop style="stop-color:#5b2e6b;stop-opacity:1;" offset="0.25"/><stop style="stop-color:#5a2d6b;stop-opacity:1;" offset="0.257812"/><stop style="stop-color:#592d6a;stop-opacity:1;" offset="0.265625"/><stop style="stop-color:#592d69;stop-opacity:1;" offset="0.273438"/><stop style="stop-color:#582d69;stop-opacity:1;" offset="0.28125"/><stop style="stop-color:#572d68;stop-opacity:1;" offset="0.289062"/><stop style="stop-color:#572d68;stop-opacity:1;" offset="0.296875"/><stop style="stop-color:#562c67;stop-opacity:1;" offset="0.304688"/><stop style="stop-color:#562c66;stop-opacity:1;" offset="0.3125"/><stop style="stop-color:#552c66;stop-opacity:1;" offset="0.320312"/><stop style="stop-color:#542c65;stop-opacity:1;" offset="0.328125"/><stop style="stop-color:#542c64;stop-opacity:1;" offset="0.335938"/><stop style="stop-color:#532c64;stop-opacity:1;" offset="0.34375"/><stop style="stop-color:#532b63;stop-opacity:1;" offset="0.351562"/><stop style="stop-color:#522b63;stop-opacity:1;" offset="0.359375"/><stop style="stop-color:#512b62;stop-opacity:1;" offset="0.367188"/><stop style="stop-color:#512b61;stop-opacity:1;" offset="0.375"/><stop style="stop-color:#502b61;stop-opacity:1;" offset="0.382812"/><stop style="stop-color:#4f2b60;stop-opacity:1;" offset="0.390625"/><stop style="stop-color:#4f2a5f;stop-opacity:1;" offset="0.398438"/><stop style="stop-color:#4e2a5f;stop-opacity:1;" offset="0.40625"/><stop style="stop-color:#4e2a5e;stop-opacity:1;" offset="0.414062"/><stop style="stop-color:#4d2a5e;stop-opacity:1;" offset="0.421875"/><stop style="stop-color:#4c2a5d;stop-opacity:1;" offset="0.429688"/><stop style="stop-color:#4c295c;stop-opacity:1;" offset="0.4375"/><stop style="stop-color:#4b295c;stop-opacity:1;" offset="0.445312"/><stop style="stop-color:#4b295b;stop-opacity:1;" offset="0.453125"/><stop style="stop-color:#4a295a;stop-opacity:1;" offset="0.460938"/><stop style="stop-color:#49295a;stop-opacity:1;" offset="0.46875"/><stop style="stop-color:#492959;stop-opacity:1;" offset="0.476562"/><stop style="stop-color:#482859;stop-opacity:1;" offset="0.484375"/><stop style="stop-color:#472858;stop-opacity:1;" offset="0.492188"/><stop style="stop-color:#472857;stop-opacity:1;" offset="0.5"/><stop style="stop-color:#462857;stop-opacity:1;" offset="0.507812"/><stop style="stop-color:#462856;stop-opacity:1;" offset="0.515625"/><stop style="stop-color:#452855;stop-opacity:1;" offset="0.523438"/><stop style="stop-color:#442755;stop-opacity:1;" offset="0.53125"/><stop style="stop-color:#442754;stop-opacity:1;" offset="0.539063"/><stop style="stop-color:#432754;stop-opacity:1;" offset="0.546875"/><stop style="stop-color:#432753;stop-opacity:1;" offset="0.554688"/><stop style="stop-color:#422752;stop-opacity:1;" offset="0.5625"/><stop style="stop-color:#412752;stop-opacity:1;" offset="0.570313"/><stop style="stop-color:#412651;stop-opacity:1;" offset="0.578125"/><stop style="stop-color:#402650;stop-opacity:1;" offset="0.585938"/><stop style="stop-color:#3f2650;stop-opacity:1;" offset="0.59375"/><stop style="stop-color:#3f264f;stop-opacity:1;" offset="0.601562"/><stop style="stop-color:#3e264f;stop-opacity:1;" offset="0.609375"/><stop style="stop-color:#3e264e;stop-opacity:1;" offset="0.617188"/><stop style="stop-color:#3d254d;stop-opacity:1;" offset="0.625"/><stop style="stop-color:#3c254d;stop-opacity:1;" offset="0.632812"/><stop style="stop-color:#3c254c;stop-opacity:1;" offset="0.640625"/><stop style="stop-color:#3b254b;stop-opacity:1;" offset="0.648438"/><stop style="stop-color:#3b254b;stop-opacity:1;" offset="0.65625"/><stop style="stop-color:#3a254a;stop-opacity:1;" offset="0.664063"/><stop style="stop-color:#39244a;stop-opacity:1;" offset="0.671875"/><stop style="stop-color:#392449;stop-opacity:1;" offset="0.679688"/><stop style="stop-color:#382448;stop-opacity:1;" offset="0.6875"/><stop style="stop-color:#372448;stop-opacity:1;" offset="0.695313"/><stop style="stop-color:#372447;stop-opacity:1;" offset="0.703125"/><stop style="stop-color:#362346;stop-opacity:1;" offset="0.710937"/><stop style="stop-color:#362346;stop-opacity:1;" offset="0.71875"/><stop style="stop-color:#352345;stop-opacity:1;" offset="0.726562"/><stop style="stop-color:#342344;stop-opacity:1;" offset="0.734375"/><stop style="stop-color:#342344;stop-opacity:1;" offset="0.742188"/><stop style="stop-color:#332343;stop-opacity:1;" offset="0.75"/><stop style="stop-color:#322243;stop-opacity:1;" offset="0.757812"/><stop style="stop-color:#322242;stop-opacity:1;" offset="0.765625"/><stop style="stop-color:#312241;stop-opacity:1;" offset="0.773438"/><stop style="stop-color:#312241;stop-opacity:1;" offset="0.78125"/><stop style="stop-color:#302240;stop-opacity:1;" offset="0.789063"/><stop style="stop-color:#2f223f;stop-opacity:1;" offset="0.796875"/><stop style="stop-color:#2f213f;stop-opacity:1;" offset="0.804688"/><stop style="stop-color:#2e213e;stop-opacity:1;" offset="0.8125"/><stop style="stop-color:#2e213e;stop-opacity:1;" offset="0.820313"/><stop style="stop-color:#2d213d;stop-opacity:1;" offset="0.828125"/><stop style="stop-color:#2c213c;stop-opacity:1;" offset="0.835937"/><stop style="stop-color:#2c213c;stop-opacity:1;" offset="0.84375"/><stop style="stop-color:#2b203b;stop-opacity:1;" offset="0.851562"/><stop style="stop-color:#2a203a;stop-opacity:1;" offset="0.859375"/><stop style="stop-color:#2a203a;stop-opacity:1;" offset="0.867188"/><stop style="stop-color:#292039;stop-opacity:1;" offset="0.875"/><stop style="stop-color:#292039;stop-opacity:1;" offset="0.882812"/><stop style="stop-color:#282038;stop-opacity:1;" offset="0.890625"/><stop style="stop-color:#271f37;stop-opacity:1;" offset="0.898438"/><stop style="stop-color:#271f37;stop-opacity:1;" offset="0.90625"/><stop style="stop-color:#261f36;stop-opacity:1;" offset="0.914063"/><stop style="stop-color:#261f35;stop-opacity:1;" offset="0.921875"/><stop style="stop-color:#251f35;stop-opacity:1;" offset="0.929688"/><stop style="stop-color:#241f34;stop-opacity:1;" offset="0.9375"/><stop style="stop-color:#241e34;stop-opacity:1;" offset="0.945312"/><stop style="stop-color:#231e33;stop-opacity:1;" offset="0.953125"/><stop style="stop-color:#221e32;stop-opacity:1;" offset="0.960937"/><stop style="stop-color:#221e32;stop-opacity:1;" offset="0.96875"/><stop style="stop-color:#211e31;stop-opacity:1;" offset="0.976562"/><stop style="stop-color:#211d30;stop-opacity:1;" offset="0.984375"/><stop style="stop-color:#201d30;stop-opacity:1;" offset="0.992188"/><stop style="stop-color:#1f1d2f;stop-opacity:1;" offset="1"/></linearGradient><clipPath id="d4eeaa0ff1"><path d="M 53 140.394531 L 131 140.394531 L 131 209 L 53 209 Z M 53 140.394531 "/></clipPath><clipPath id="3e41e78fb0"><path d="M 42.867188 195 L 159 195 L 159 225 L 42.867188 225 Z M 42.867188 195 "/></clipPath></defs><g id="ef362083a1"><rect x="0" width="375" y="0" height="374.999991" style="fill:#ffffff;fill-opacity:1;stroke:none;"/><rect x="0" width="375" y="0" height="374.999991" style="fill:#ffffff;fill-opacity:1;stroke:none;"/><g clip-rule="nonzero" clip-path="url(#8f9cfbb60b)"><g clip-rule="nonzero" clip-path="url(#61e39698cb)"><path style=" stroke:none;fill-rule:nonzero;fill:url(#3036984617);" d="M 40.5 128.355469 L 40.5 241.347656 L 161.335938 241.347656 L 161.335938 128.355469 Z M 40.5 128.355469 "/></g></g><g clip-rule="nonzero" clip-path="url(#d4eeaa0ff1)"><path style=" stroke:none;fill-rule:nonzero;fill:#ffffff;fill-opacity:1;" d="M 56.503906 141.160156 C 61.726562 141.898438 74.628906 144.933594 84.527344 150.726562 C 95.390625 157.089844 100.972656 164.40625 105.980469 170.980469 C 110.601562 177.039062 116.820312 186.746094 120.589844 199.941406 C 120.636719 200.101562 120.785156 200.183594 120.785156 200.183594 C 122.941406 202.738281 129.917969 208.9375 130.191406 208.882812 C 132.480469 208.457031 122.988281 187.121094 122.039062 185.324219 C 114.984375 172.015625 105.078125 159.480469 90.207031 151.207031 C 81.179688 146.179688 69.953125 141.695312 58.882812 140.835938 C 58 140.773438 53.175781 140.394531 53.148438 140.5625 C 53.128906 140.699219 56.042969 141.097656 56.503906 141.160156 Z M 56.503906 141.160156 "/></g><path style=" stroke:none;fill-rule:nonzero;fill:#ffffff;fill-opacity:1;" d="M 69.4375 152.246094 C 75.292969 154.480469 85.078125 159.089844 94.292969 168.40625 C 106.128906 180.378906 110.535156 193.570312 112.214844 199.925781 C 112.214844 199.925781 105.730469 150.753906 52.410156 141.878906 C 66.171875 149.332031 74.175781 163.390625 72.710938 177.269531 C 71.355469 190.066406 62.464844 197.941406 60.074219 199.933594 C 62.34375 198.78125 64.84375 197.332031 67.453125 195.542969 C 69.640625 194.039062 71.558594 192.519531 73.226562 191.078125 C 75.433594 188.839844 77.71875 185.738281 78.984375 181.671875 C 83.660156 166.691406 70.0625 152.875 69.4375 152.246094 Z M 69.4375 152.246094 "/><g clip-rule="nonzero" clip-path="url(#3e41e78fb0)"><path style=" stroke:none;fill-rule:nonzero;fill:#ffffff;fill-opacity:1;" d="M 146.953125 217.246094 C 127.121094 217.691406 115.230469 206.132812 101.941406 199.75 C 101.941406 199.859375 101.941406 199.925781 101.941406 199.925781 C 101.902344 199.859375 101.859375 199.777344 101.800781 199.683594 C 98.351562 198.035156 94.800781 196.742188 90.992188 196.097656 C 80.292969 194.296875 64.558594 197.148438 42.890625 218.324219 C 64.371094 205.855469 80.671875 205.109375 91.96875 207.074219 C 115.085938 211.09375 131.003906 228.898438 147.867188 223.179688 C 153.050781 221.417969 156.414062 218.085938 158.40625 215.652344 C 155.910156 216.304688 151.925781 217.136719 146.953125 217.246094 Z M 146.953125 217.246094 "/></g><g style="fill:#70248b;fill-opacity:1;"><g transform="translate(165.737674, 180.485699)"><path style="stroke:none" d="M 2.5 0 L 2.5 -41.625 L 21.65625 -41.625 C 26.695312 -41.625 30.65625 -40.34375 33.53125 -37.78125 C 36.632812 -35.03125 38.1875 -31.363281 38.1875 -26.78125 C 38.1875 -22.738281 36.835938 -19.378906 34.140625 -16.703125 C 31.441406 -14.023438 28.019531 -12.6875 23.875 -12.6875 L 14.671875 -12.6875 L 14.671875 0 Z M 14.671875 -31.546875 L 14.671875 -22.125 L 21.25 -22.125 C 22.726562 -22.125 23.898438 -22.566406 24.765625 -23.453125 C 25.640625 -24.347656 26.078125 -25.515625 26.078125 -26.953125 C 26.078125 -28.347656 25.640625 -29.460938 24.765625 -30.296875 C 23.898438 -31.128906 22.691406 -31.546875 21.140625 -31.546875 Z M 14.671875 -31.546875 "/></g></g><g style="fill:#70248b;fill-opacity:1;"><g transform="translate(202.761193, 180.485699)"><path style="stroke:none" d="M 32.25 0 L 21.78125 0 L 21.78125 -3.84375 L 21.59375 -3.84375 C 19.269531 -0.65625 16.1875 0.9375 12.34375 0.9375 C 8.882812 0.9375 6.253906 -0.0859375 4.453125 -2.140625 C 2.648438 -4.203125 1.75 -7 1.75 -10.53125 L 1.75 -29.6875 L 12.75 -29.6875 L 12.75 -13.15625 C 12.75 -10.007812 14.066406 -8.4375 16.703125 -8.4375 C 18.140625 -8.4375 19.253906 -8.898438 20.046875 -9.828125 C 20.847656 -10.765625 21.25 -12.050781 21.25 -13.6875 L 21.25 -29.6875 L 32.25 -29.6875 Z M 32.25 0 "/></g></g><g style="fill:#70248b;fill-opacity:1;"><g transform="translate(235.244085, 180.485699)"><path style="stroke:none" d="M 12.453125 -29.6875 L 12.453125 -25.203125 L 12.640625 -25.203125 C 14.804688 -28.617188 17.8125 -30.328125 21.65625 -30.328125 C 22.46875 -30.328125 23.070312 -30.234375 23.46875 -30.046875 L 23.46875 -20.671875 L 23.234375 -20.671875 C 19.972656 -21.210938 17.445312 -20.765625 15.65625 -19.328125 C 13.875 -17.890625 12.984375 -15.503906 12.984375 -12.171875 L 12.984375 0 L 1.984375 0 L 1.984375 -29.6875 Z M 12.453125 -29.6875 "/></g></g><g style="fill:#70248b;fill-opacity:1;"><g transform="translate(257.597863, 180.485699)"><path style="stroke:none" d="M 1.984375 9.84375 L 1.984375 -29.6875 L 12.453125 -29.6875 L 12.453125 -26.203125 L 12.640625 -26.203125 C 14.921875 -29.148438 18.003906 -30.625 21.890625 -30.625 C 25.773438 -30.625 28.84375 -29.117188 31.09375 -26.109375 C 33.34375 -23.097656 34.46875 -19.363281 34.46875 -14.90625 C 34.46875 -10.050781 33.28125 -6.1875 30.90625 -3.3125 C 28.539062 -0.445312 25.378906 0.984375 21.421875 0.984375 C 17.972656 0.984375 15.21875 -0.273438 13.15625 -2.796875 L 12.984375 -2.796875 L 12.984375 9.84375 Z M 18.171875 -7.109375 C 19.796875 -7.109375 21.050781 -7.753906 21.9375 -9.046875 C 22.832031 -10.347656 23.28125 -12.144531 23.28125 -14.4375 C 23.28125 -16.726562 22.832031 -18.53125 21.9375 -19.84375 C 21.050781 -21.164062 19.796875 -21.828125 18.171875 -21.828125 C 16.492188 -21.828125 15.140625 -21.128906 14.109375 -19.734375 C 13.085938 -18.335938 12.578125 -16.570312 12.578125 -14.4375 C 12.578125 -12.257812 13.085938 -10.492188 14.109375 -9.140625 C 15.140625 -7.785156 16.492188 -7.109375 18.171875 -7.109375 Z M 18.171875 -7.109375 "/></g></g><g style="fill:#70248b;fill-opacity:1;"><g transform="translate(291.070373, 180.485699)"><path style="stroke:none" d="M 1.984375 0 L 1.984375 -41.625 L 13.28125 -41.625 L 13.28125 0 Z M 1.984375 0 "/></g></g><g style="fill:#70248b;fill-opacity:1;"><g transform="translate(304.575734, 180.485699)"><path style="stroke:none" d="M 17 0.8125 C 12.1875 0.8125 8.273438 -0.660156 5.265625 -3.609375 C 2.253906 -6.554688 0.75 -10.320312 0.75 -14.90625 C 0.75 -19.445312 2.222656 -23.210938 5.171875 -26.203125 C 8.128906 -29.191406 11.9375 -30.6875 16.59375 -30.6875 C 20.976562 -30.6875 24.625 -29.347656 27.53125 -26.671875 C 31.101562 -23.367188 32.832031 -18.535156 32.71875 -12.171875 L 11.53125 -12.171875 C 12.226562 -8.484375 14.164062 -6.640625 17.34375 -6.640625 C 19.289062 -6.640625 20.671875 -7.375 21.484375 -8.84375 L 32.140625 -8.84375 C 31.472656 -6.050781 29.585938 -3.664062 26.484375 -1.6875 C 23.890625 -0.0195312 20.726562 0.8125 17 0.8125 Z M 16.828125 -23.28125 C 13.910156 -23.28125 12.144531 -21.515625 11.53125 -17.984375 L 21.78125 -17.984375 C 21.539062 -19.660156 20.984375 -20.960938 20.109375 -21.890625 C 19.234375 -22.816406 18.140625 -23.28125 16.828125 -23.28125 Z M 16.828125 -23.28125 "/></g></g><g style="fill:#1d1b2d;fill-opacity:1;"><g transform="translate(166.93262, 229.444772)"><path style="stroke:none" d="M 37.3125 -5.09375 C 33.4375 -1.039062 28.316406 0.984375 21.953125 0.984375 C 15.585938 0.984375 10.484375 -1.039062 6.640625 -5.09375 C 2.796875 -9.144531 0.875 -14.332031 0.875 -20.65625 C 0.875 -26.988281 2.796875 -32.191406 6.640625 -36.265625 C 10.484375 -40.347656 15.585938 -42.390625 21.953125 -42.390625 C 28.316406 -42.390625 33.4375 -40.347656 37.3125 -36.265625 C 41.195312 -32.191406 43.140625 -26.988281 43.140625 -20.65625 C 43.140625 -14.332031 41.195312 -9.144531 37.3125 -5.09375 Z M 15.484375 -12.046875 C 16.992188 -9.835938 19.164062 -8.734375 22 -8.734375 C 24.832031 -8.734375 27.003906 -9.835938 28.515625 -12.046875 C 30.035156 -14.265625 30.796875 -17.140625 30.796875 -20.671875 C 30.796875 -24.203125 30.035156 -27.082031 28.515625 -29.3125 C 27.003906 -31.539062 24.832031 -32.65625 22 -32.65625 C 19.164062 -32.65625 16.992188 -31.539062 15.484375 -29.3125 C 13.972656 -27.082031 13.21875 -24.203125 13.21875 -20.671875 C 13.21875 -17.140625 13.972656 -14.265625 15.484375 -12.046875 Z M 15.484375 -12.046875 "/></g></g><g style="fill:#1d1b2d;fill-opacity:1;"><g transform="translate(209.195343, 229.444772)"><path style="stroke:none" d="M 17.0625 0.9375 C 12.207031 0.9375 8.273438 -0.535156 5.265625 -3.484375 C 2.253906 -6.441406 0.75 -10.207031 0.75 -14.78125 C 0.75 -19.363281 2.253906 -23.140625 5.265625 -26.109375 C 8.273438 -29.078125 12.207031 -30.5625 17.0625 -30.5625 C 21.175781 -30.5625 24.5625 -29.460938 27.21875 -27.265625 C 29.875 -25.078125 31.394531 -22.21875 31.78125 -18.6875 L 21.1875 -18.6875 C 20.570312 -21.476562 19.15625 -22.875 16.9375 -22.875 C 13.601562 -22.875 11.9375 -20.175781 11.9375 -14.78125 C 11.9375 -12.257812 12.367188 -10.300781 13.234375 -8.90625 C 14.109375 -7.507812 15.382812 -6.8125 17.0625 -6.8125 C 19.625 -6.8125 21.054688 -8.539062 21.359375 -12 L 31.96875 -12 C 31.96875 -8.269531 30.578125 -5.179688 27.796875 -2.734375 C 25.023438 -0.285156 21.445312 0.9375 17.0625 0.9375 Z M 17.0625 0.9375 "/></g></g><g style="fill:#1d1b2d;fill-opacity:1;"><g transform="translate(239.990039, 229.444772)"><path style="stroke:none" d="M 17 0.8125 C 12.1875 0.8125 8.273438 -0.660156 5.265625 -3.609375 C 2.253906 -6.554688 0.75 -10.320312 0.75 -14.90625 C 0.75 -19.445312 2.222656 -23.210938 5.171875 -26.203125 C 8.128906 -29.191406 11.9375 -30.6875 16.59375 -30.6875 C 20.976562 -30.6875 24.625 -29.347656 27.53125 -26.671875 C 31.101562 -23.367188 32.832031 -18.535156 32.71875 -12.171875 L 11.53125 -12.171875 C 12.226562 -8.484375 14.164062 -6.640625 17.34375 -6.640625 C 19.289062 -6.640625 20.671875 -7.375 21.484375 -8.84375 L 32.140625 -8.84375 C 31.472656 -6.050781 29.585938 -3.664062 26.484375 -1.6875 C 23.890625 -0.0195312 20.726562 0.8125 17 0.8125 Z M 16.828125 -23.28125 C 13.910156 -23.28125 12.144531 -21.515625 11.53125 -17.984375 L 21.78125 -17.984375 C 21.539062 -19.660156 20.984375 -20.960938 20.109375 -21.890625 C 19.234375 -22.816406 18.140625 -23.28125 16.828125 -23.28125 Z M 16.828125 -23.28125 "/></g></g><g style="fill:#1d1b2d;fill-opacity:1;"><g transform="translate(271.716148, 229.444772)"><path style="stroke:none" d="M 20.609375 0 C 20.140625 -0.78125 19.8125 -1.867188 19.625 -3.265625 L 19.5 -3.265625 C 17.5625 -0.585938 14.570312 0.75 10.53125 0.75 C 7.582031 0.75 5.195312 -0.0234375 3.375 -1.578125 C 1.550781 -3.128906 0.640625 -5.320312 0.640625 -8.15625 C 0.640625 -11.175781 1.609375 -13.351562 3.546875 -14.6875 C 5.492188 -16.03125 8.113281 -16.898438 11.40625 -17.296875 C 14.507812 -17.640625 16.613281 -18.046875 17.71875 -18.515625 C 18.832031 -18.984375 19.390625 -19.679688 19.390625 -20.609375 C 19.390625 -22.515625 18.34375 -23.46875 16.25 -23.46875 C 13.957031 -23.46875 12.65625 -22.28125 12.34375 -19.90625 L 1.921875 -19.90625 C 2.035156 -23.007812 3.296875 -25.570312 5.703125 -27.59375 C 8.109375 -29.613281 11.546875 -30.625 16.015625 -30.625 C 20.359375 -30.625 23.597656 -29.960938 25.734375 -28.640625 C 28.796875 -26.742188 30.328125 -23.773438 30.328125 -19.734375 L 30.328125 -4.890625 C 30.328125 -2.410156 30.695312 -0.9375 31.4375 -0.46875 L 31.4375 0 Z M 14.671875 -5.765625 C 16.066406 -5.765625 17.25 -6.179688 18.21875 -7.015625 C 19.1875 -7.847656 19.671875 -9.097656 19.671875 -10.765625 L 19.671875 -13.390625 C 18.546875 -12.847656 17.128906 -12.382812 15.421875 -12 C 13.867188 -11.644531 12.78125 -11.210938 12.15625 -10.703125 C 11.539062 -10.203125 11.234375 -9.503906 11.234375 -8.609375 C 11.234375 -7.679688 11.5625 -6.972656 12.21875 -6.484375 C 12.882812 -6.003906 13.703125 -5.765625 14.671875 -5.765625 Z M 14.671875 -5.765625 "/></g></g><g style="fill:#1d1b2d;fill-opacity:1;"><g transform="translate(302.510844, 229.444772)"><path style="stroke:none" d="M 12.453125 -29.6875 L 12.453125 -25.609375 L 12.640625 -25.609375 C 15.078125 -28.953125 18.257812 -30.625 22.1875 -30.625 C 25.5625 -30.625 28.140625 -29.59375 29.921875 -27.53125 C 31.710938 -25.476562 32.609375 -22.707031 32.609375 -19.21875 L 32.609375 0 L 21.59375 0 L 21.59375 -16.53125 C 21.59375 -19.945312 20.21875 -21.65625 17.46875 -21.65625 C 16.101562 -21.65625 15.015625 -21.117188 14.203125 -20.046875 C 13.390625 -18.984375 12.984375 -17.640625 12.984375 -16.015625 L 12.984375 0 L 1.984375 0 L 1.984375 -29.6875 Z M 12.453125 -29.6875 "/></g></g></g></svg>