<svg xmlns="http://www.w3.org/2000/svg" xmlns:xlink="http://www.w3.org/1999/xlink" width="500" zoomAndPan="magnify" viewBox="0 0 375 374.999991" height="500" preserveAspectRatio="xMidYMid meet" version="1.0"><defs><filter x="0%" y="0%" width="100%" height="100%" id="533075478a"><feColorMatrix values="0 0 0 0 1 0 0 0 0 1 0 0 0 0 1 0 0 0 1 0" color-interpolation-filters="sRGB"/></filter><g/><clipPath id="585142b58e"><path d="M 0 0 L 375 0 L 375 324.402344 L 0 324.402344 Z M 0 0 " clip-rule="nonzero"/></clipPath><clipPath id="9b8740a7d0"><path d="M 0 0 L 375 0 L 375 324.402344 L 0 324.402344 Z M 0 0 " clip-rule="nonzero"/></clipPath><clipPath id="84e3e989ff"><path d="M 0 0 L 375 0 L 375 317.652344 L 0 317.652344 Z M 0 0 " clip-rule="nonzero"/></clipPath><linearGradient x1="179.40601" gradientTransform="matrix(0.749875, 0, 0, 0.749438, 52.678962, 106.560768)" y1="-142.187595" x2="179.40601" gradientUnits="userSpaceOnUse" y2="281.665994" id="dc72cac115"><stop stop-opacity="1" stop-color="rgb(58.428955%, 27.059937%, 77.648926%)" offset="0"/><stop stop-opacity="1" stop-color="rgb(58.428955%, 27.059937%, 77.648926%)" offset="0.25"/><stop stop-opacity="1" stop-color="rgb(58.428955%, 27.059937%, 77.648926%)" offset="0.3125"/><stop stop-opacity="1" stop-color="rgb(58.428955%, 27.059937%, 77.648926%)" offset="0.34375"/><stop stop-opacity="1" stop-color="rgb(58.428955%, 27.059937%, 77.648926%)" offset="0.351563"/><stop stop-opacity="1" stop-color="rgb(58.859253%, 27.815247%, 77.880859%)" offset="0.355469"/><stop stop-opacity="1" stop-color="rgb(59.291077%, 28.570557%, 78.112793%)" offset="0.359375"/><stop stop-opacity="1" stop-color="rgb(59.959412%, 29.742432%, 78.471375%)" offset="0.363281"/><stop stop-opacity="1" stop-color="rgb(60.627747%, 30.915833%, 78.831482%)" offset="0.367188"/><stop stop-opacity="1" stop-color="rgb(61.296082%, 32.087708%, 79.190063%)" offset="0.371094"/><stop stop-opacity="1" stop-color="rgb(61.964417%, 33.261108%, 79.550171%)" offset="0.375"/><stop stop-opacity="1" stop-color="rgb(62.631226%, 34.432983%, 79.908752%)" offset="0.378906"/><stop stop-opacity="1" stop-color="rgb(63.299561%, 35.606384%, 80.267334%)" offset="0.382812"/><stop stop-opacity="1" stop-color="rgb(63.967896%, 36.778259%, 80.625916%)" offset="0.386719"/><stop stop-opacity="1" stop-color="rgb(64.63623%, 37.950134%, 80.986023%)" offset="0.390625"/><stop stop-opacity="1" stop-color="rgb(65.304565%, 39.122009%, 81.344604%)" offset="0.394531"/><stop stop-opacity="1" stop-color="rgb(65.9729%, 40.29541%, 81.704712%)" offset="0.398438"/><stop stop-opacity="1" stop-color="rgb(66.641235%, 41.467285%, 82.063293%)" offset="0.402344"/><stop stop-opacity="1" stop-color="rgb(67.30957%, 42.640686%, 82.423401%)" offset="0.40625"/><stop stop-opacity="1" stop-color="rgb(67.977905%, 43.812561%, 82.781982%)" offset="0.410156"/><stop stop-opacity="1" stop-color="rgb(68.64624%, 44.985962%, 83.14209%)" offset="0.414063"/><stop stop-opacity="1" stop-color="rgb(69.314575%, 46.157837%, 83.500671%)" offset="0.417969"/><stop stop-opacity="1" stop-color="rgb(69.98291%, 47.331238%, 83.860779%)" offset="0.421875"/><stop stop-opacity="1" stop-color="rgb(70.649719%, 48.503113%, 84.21936%)" offset="0.425781"/><stop stop-opacity="1" stop-color="rgb(71.318054%, 49.674988%, 84.579468%)" offset="0.429688"/><stop stop-opacity="1" stop-color="rgb(71.986389%, 50.846863%, 84.938049%)" offset="0.433594"/><stop stop-opacity="1" stop-color="rgb(72.654724%, 52.020264%, 85.298157%)" offset="0.4375"/><stop stop-opacity="1" stop-color="rgb(73.323059%, 53.192139%, 85.656738%)" offset="0.441406"/><stop stop-opacity="1" stop-color="rgb(73.991394%, 54.36554%, 86.016846%)" offset="0.445312"/><stop stop-opacity="1" stop-color="rgb(74.659729%, 55.537415%, 86.375427%)" offset="0.449219"/><stop stop-opacity="1" stop-color="rgb(75.328064%, 56.710815%, 86.735535%)" offset="0.453125"/><stop stop-opacity="1" stop-color="rgb(75.996399%, 57.88269%, 87.094116%)" offset="0.457031"/><stop stop-opacity="1" stop-color="rgb(76.664734%, 59.056091%, 87.452698%)" offset="0.460938"/><stop stop-opacity="1" stop-color="rgb(77.333069%, 60.227966%, 87.811279%)" offset="0.464844"/><stop stop-opacity="1" stop-color="rgb(78.001404%, 61.399841%, 88.171387%)" offset="0.46875"/><stop stop-opacity="1" stop-color="rgb(78.669739%, 62.571716%, 88.529968%)" offset="0.472656"/><stop stop-opacity="1" stop-color="rgb(79.338074%, 63.745117%, 88.890076%)" offset="0.476563"/><stop stop-opacity="1" stop-color="rgb(80.004883%, 64.916992%, 89.248657%)" offset="0.480469"/><stop stop-opacity="1" stop-color="rgb(80.673218%, 66.090393%, 89.608765%)" offset="0.484375"/><stop stop-opacity="1" stop-color="rgb(81.341553%, 67.262268%, 89.967346%)" offset="0.488281"/><stop stop-opacity="1" stop-color="rgb(82.009888%, 68.435669%, 90.327454%)" offset="0.492188"/><stop stop-opacity="1" stop-color="rgb(82.678223%, 69.607544%, 90.686035%)" offset="0.496094"/><stop stop-opacity="1" stop-color="rgb(83.346558%, 70.779419%, 91.046143%)" offset="0.5"/><stop stop-opacity="1" stop-color="rgb(84.014893%, 71.951294%, 91.404724%)" offset="0.503906"/><stop stop-opacity="1" stop-color="rgb(84.683228%, 73.124695%, 91.764832%)" offset="0.507813"/><stop stop-opacity="1" stop-color="rgb(85.351562%, 74.29657%, 92.123413%)" offset="0.511719"/><stop stop-opacity="1" stop-color="rgb(86.019897%, 75.469971%, 92.483521%)" offset="0.515625"/><stop stop-opacity="1" stop-color="rgb(86.688232%, 76.641846%, 92.842102%)" offset="0.519531"/><stop stop-opacity="1" stop-color="rgb(87.356567%, 77.815247%, 93.202209%)" offset="0.523438"/><stop stop-opacity="1" stop-color="rgb(88.023376%, 78.987122%, 93.560791%)" offset="0.527344"/><stop stop-opacity="1" stop-color="rgb(88.691711%, 80.160522%, 93.920898%)" offset="0.53125"/><stop stop-opacity="1" stop-color="rgb(89.360046%, 81.332397%, 94.27948%)" offset="0.535156"/><stop stop-opacity="1" stop-color="rgb(90.028381%, 82.504272%, 94.638062%)" offset="0.539062"/><stop stop-opacity="1" stop-color="rgb(90.696716%, 83.676147%, 94.996643%)" offset="0.542969"/><stop stop-opacity="1" stop-color="rgb(91.365051%, 84.849548%, 95.35675%)" offset="0.546875"/><stop stop-opacity="1" stop-color="rgb(92.033386%, 86.021423%, 95.715332%)" offset="0.550781"/><stop stop-opacity="1" stop-color="rgb(92.701721%, 87.194824%, 96.075439%)" offset="0.554688"/><stop stop-opacity="1" stop-color="rgb(93.370056%, 88.366699%, 96.434021%)" offset="0.558594"/><stop stop-opacity="1" stop-color="rgb(94.038391%, 89.5401%, 96.794128%)" offset="0.5625"/><stop stop-opacity="1" stop-color="rgb(94.706726%, 90.711975%, 97.15271%)" offset="0.566406"/><stop stop-opacity="1" stop-color="rgb(95.375061%, 91.885376%, 97.512817%)" offset="0.570313"/><stop stop-opacity="1" stop-color="rgb(96.043396%, 93.057251%, 97.871399%)" offset="0.574219"/><stop stop-opacity="1" stop-color="rgb(96.711731%, 94.229126%, 98.231506%)" offset="0.578125"/><stop stop-opacity="1" stop-color="rgb(97.37854%, 95.401001%, 98.590088%)" offset="0.582031"/><stop stop-opacity="1" stop-color="rgb(98.046875%, 96.574402%, 98.950195%)" offset="0.585938"/><stop stop-opacity="1" stop-color="rgb(98.71521%, 97.746277%, 99.308777%)" offset="0.589844"/><stop stop-opacity="1" stop-color="rgb(99.383545%, 98.919678%, 99.668884%)" offset="0.59375"/><stop stop-opacity="1" stop-color="rgb(99.691772%, 99.459839%, 99.833679%)" offset="0.597656"/><stop stop-opacity="1" stop-color="rgb(100%, 100%, 100%)" offset="0.601563"/><stop stop-opacity="1" stop-color="rgb(100%, 100%, 100%)" offset="0.609375"/><stop stop-opacity="1" stop-color="rgb(100%, 100%, 100%)" offset="0.625"/><stop stop-opacity="1" stop-color="rgb(100%, 100%, 100%)" offset="0.75"/><stop stop-opacity="1" stop-color="rgb(100%, 100%, 100%)" offset="1"/></linearGradient><clipPath id="100ff6e2dc"><rect x="0" width="375" y="0" height="325"/></clipPath><clipPath id="ad060c8718"><path d="M 0 0 L 375 0 L 375 324.402344 L 0 324.402344 Z M 0 0 " clip-rule="nonzero"/></clipPath><clipPath id="a4db8b1747"><rect x="0" width="375" y="0" height="325"/></clipPath><clipPath id="e94f05c61e"><rect x="0" width="375" y="0" height="325"/></clipPath><mask id="84c0cb35e7"><g filter="url(#533075478a)"><g transform="matrix(1, 0, 0, 1, 0, 0)"><g clip-path="url(#e94f05c61e)"><g clip-path="url(#ad060c8718)"><g transform="matrix(1, 0, 0, 1, 0, 0)"><g clip-path="url(#a4db8b1747)"><g fill="#000000" fill-opacity="1"><g transform="translate(52.949228, 170.65195)"><g><path d="M 1.734375 0 L 1.734375 -44.796875 L 36.921875 -44.796875 C 40.335938 -44.796875 43.328125 -44.082031 45.890625 -42.65625 C 48.453125 -41.226562 50.457031 -39.242188 51.90625 -36.703125 C 53.351562 -34.160156 54.078125 -31.226562 54.078125 -27.90625 C 54.078125 -24.570312 53.351562 -21.632812 51.90625 -19.09375 C 50.457031 -16.5625 48.453125 -14.566406 45.890625 -13.109375 C 43.328125 -11.660156 40.335938 -10.9375 36.921875 -10.9375 L 16.765625 -10.9375 L 16.765625 0 Z M 16.765625 -23.609375 L 33.734375 -23.609375 C 34.492188 -23.609375 35.289062 -23.671875 36.125 -23.796875 C 36.957031 -23.929688 37.660156 -24.296875 38.234375 -24.890625 C 38.816406 -25.492188 39.109375 -26.5 39.109375 -27.90625 C 39.109375 -29.3125 38.816406 -30.3125 38.234375 -30.90625 C 37.660156 -31.507812 36.957031 -31.863281 36.125 -31.96875 C 35.289062 -32.070312 34.492188 -32.125 33.734375 -32.125 L 16.765625 -32.125 Z M 16.765625 -23.609375 "/></g></g></g><g fill="#000000" fill-opacity="1"><g transform="translate(106.257842, 170.65195)"><g><path d="M 20.546875 0.640625 C 18.285156 0.640625 16.046875 0.40625 13.828125 -0.0625 C 11.609375 -0.53125 9.59375 -1.363281 7.78125 -2.5625 C 5.96875 -3.757812 4.503906 -5.46875 3.390625 -7.6875 C 2.285156 -9.90625 1.734375 -12.738281 1.734375 -16.1875 L 1.796875 -38.140625 L 15.75 -38.140625 L 15.75 -21.828125 C 15.75 -18.328125 16.484375 -15.734375 17.953125 -14.046875 C 19.421875 -12.359375 22.035156 -11.515625 25.796875 -11.515625 C 27.628906 -11.515625 29.453125 -11.769531 31.265625 -12.28125 C 33.078125 -12.800781 34.757812 -13.507812 36.3125 -14.40625 C 37.875 -15.300781 39.164062 -16.28125 40.1875 -17.34375 L 40.1875 -38.140625 L 54.140625 -38.140625 L 54.140625 0 L 40.1875 0 L 40.1875 -5.5625 C 37.757812 -3.8125 34.921875 -2.335938 31.671875 -1.140625 C 28.429688 0.046875 24.722656 0.640625 20.546875 0.640625 Z M 20.546875 0.640625 "/></g></g></g><g fill="#000000" fill-opacity="1"><g transform="translate(160.078429, 170.65195)"><g><path d="M 1.734375 0 L 1.734375 -38.140625 L 15.6875 -38.140625 L 15.6875 -31.75 C 17.726562 -34.257812 20.144531 -36.054688 22.9375 -37.140625 C 25.738281 -38.234375 28.757812 -38.78125 32 -38.78125 C 34.257812 -38.78125 36.195312 -38.648438 37.8125 -38.390625 C 39.4375 -38.140625 40.890625 -37.84375 42.171875 -37.5 L 42.171875 -25.921875 C 38.765625 -26.773438 35.628906 -27.203125 32.765625 -27.203125 C 30.890625 -27.203125 28.957031 -27.050781 26.96875 -26.75 C 24.988281 -26.445312 23.035156 -25.878906 21.109375 -25.046875 C 19.191406 -24.222656 17.382812 -22.976562 15.6875 -21.3125 L 15.6875 0 Z M 1.734375 0 "/></g></g></g><g fill="#000000" fill-opacity="1"><g transform="translate(201.355778, 170.65195)"><g><path d="M 1.734375 16 L 1.734375 -38.140625 L 15.6875 -38.140625 L 15.6875 -32.703125 C 17.726562 -34.796875 20.207031 -36.332031 23.125 -37.3125 C 26.050781 -38.289062 29.179688 -38.78125 32.515625 -38.78125 C 35.160156 -38.78125 37.757812 -38.457031 40.3125 -37.8125 C 42.875 -37.175781 45.175781 -36.113281 47.21875 -34.625 C 49.269531 -33.132812 50.90625 -31.117188 52.125 -28.578125 C 53.34375 -26.035156 53.953125 -22.867188 53.953125 -19.078125 C 53.953125 -15.316406 53.34375 -12.164062 52.125 -9.625 C 50.90625 -7.09375 49.269531 -5.066406 47.21875 -3.546875 C 45.175781 -2.035156 42.875 -0.957031 40.3125 -0.3125 C 37.757812 0.320312 35.160156 0.640625 32.515625 0.640625 C 29.179688 0.640625 26.050781 0.148438 23.125 -0.828125 C 20.207031 -1.804688 17.726562 -3.34375 15.6875 -5.4375 L 15.6875 16 Z M 27.84375 -11.015625 C 31.769531 -11.015625 34.773438 -11.578125 36.859375 -12.703125 C 38.953125 -13.835938 40 -15.960938 40 -19.078125 C 40 -22.191406 38.953125 -24.320312 36.859375 -25.46875 C 34.773438 -26.625 31.769531 -27.203125 27.84375 -27.203125 C 23.957031 -27.203125 20.957031 -26.625 18.84375 -25.46875 C 16.738281 -24.320312 15.6875 -22.191406 15.6875 -19.078125 C 15.6875 -15.960938 16.738281 -13.835938 18.84375 -12.703125 C 20.957031 -11.578125 23.957031 -11.015625 27.84375 -11.015625 Z M 27.84375 -11.015625 "/></g></g></g><g fill="#000000" fill-opacity="1"><g transform="translate(254.408399, 170.65195)"><g><path d="M 1.734375 0 L 1.734375 -51.203125 L 15.6875 -51.203125 L 15.6875 0 Z M 1.734375 0 "/></g></g></g><g fill="#000000" fill-opacity="1"><g transform="translate(269.703335, 170.65195)"><g><path d="M 26.5625 0.640625 C 21.65625 0.640625 17.28125 -0.0195312 13.4375 -1.34375 C 9.601562 -2.664062 6.585938 -4.773438 4.390625 -7.671875 C 2.191406 -10.578125 1.09375 -14.378906 1.09375 -19.078125 C 1.09375 -23.765625 2.191406 -27.554688 4.390625 -30.453125 C 6.585938 -33.359375 9.644531 -35.472656 13.5625 -36.796875 C 17.488281 -38.117188 22.035156 -38.78125 27.203125 -38.78125 C 31.035156 -38.78125 34.539062 -38.40625 37.71875 -37.65625 C 40.90625 -36.914062 43.640625 -35.691406 45.921875 -33.984375 C 48.203125 -32.273438 49.972656 -29.988281 51.234375 -27.125 C 52.492188 -24.269531 53.125 -20.734375 53.125 -16.515625 L 15.359375 -16.515625 C 15.785156 -14.929688 16.550781 -13.703125 17.65625 -12.828125 C 18.769531 -11.953125 20.101562 -11.34375 21.65625 -11 C 23.21875 -10.664062 24.851562 -10.5 26.5625 -10.5 C 28.65625 -10.5 30.414062 -10.59375 31.84375 -10.78125 C 33.269531 -10.976562 34.535156 -11.34375 35.640625 -11.875 C 36.753906 -12.40625 37.800781 -13.140625 38.78125 -14.078125 L 52.484375 -14.078125 C 50.472656 -4.265625 41.832031 0.640625 26.5625 0.640625 Z M 16 -24 L 38.203125 -24 C 37.347656 -26.007812 35.914062 -27.300781 33.90625 -27.875 C 31.90625 -28.445312 29.648438 -28.734375 27.140625 -28.734375 C 24.535156 -28.734375 22.238281 -28.445312 20.25 -27.875 C 18.269531 -27.300781 16.851562 -26.007812 16 -24 Z M 16 -24 "/></g></g></g></g></g></g></g></g></g></mask><clipPath id="994aa95a38"><path d="M 0 0 L 375 0 L 375 317.652344 L 0 317.652344 Z M 0 0 " clip-rule="nonzero"/></clipPath><clipPath id="c0d68924f4"><rect x="0" width="375" y="0" height="325"/></clipPath><clipPath id="cc8952cb3a"><rect x="0" width="375" y="0" height="325"/></clipPath><clipPath id="66ad786b38"><path d="M 0 50.601562 L 375 50.601562 L 375 375 L 0 375 Z M 0 50.601562 " clip-rule="nonzero"/></clipPath><clipPath id="82c3246cb0"><path d="M 0 0.601562 L 375 0.601562 L 375 325 L 0 325 Z M 0 0.601562 " clip-rule="nonzero"/></clipPath><clipPath id="1603202edc"><path d="M 0 6.601562 L 375 6.601562 L 375 325 L 0 325 Z M 0 6.601562 " clip-rule="nonzero"/></clipPath><linearGradient x1="188.453" gradientTransform="matrix(0.749747, 0, 0, 0.749438, 44.932919, 128.508806)" y1="-162.666986" x2="188.453" gradientUnits="userSpaceOnUse" y2="262.184735" id="4ea6390a54"><stop stop-opacity="1" stop-color="rgb(58.428955%, 27.059937%, 77.648926%)" offset="0"/><stop stop-opacity="1" stop-color="rgb(58.428955%, 27.059937%, 77.648926%)" offset="0.25"/><stop stop-opacity="1" stop-color="rgb(58.428955%, 27.059937%, 77.648926%)" offset="0.375"/><stop stop-opacity="1" stop-color="rgb(58.428955%, 27.059937%, 77.648926%)" offset="0.390625"/><stop stop-opacity="1" stop-color="rgb(58.428955%, 27.059937%, 77.648926%)" offset="0.398438"/><stop stop-opacity="1" stop-color="rgb(58.818054%, 27.742004%, 77.857971%)" offset="0.402344"/><stop stop-opacity="1" stop-color="rgb(59.207153%, 28.425598%, 78.068542%)" offset="0.40625"/><stop stop-opacity="1" stop-color="rgb(59.877014%, 29.600525%, 78.42865%)" offset="0.410156"/><stop stop-opacity="1" stop-color="rgb(60.546875%, 30.775452%, 78.788757%)" offset="0.414062"/><stop stop-opacity="1" stop-color="rgb(61.216736%, 31.950378%, 79.148865%)" offset="0.417969"/><stop stop-opacity="1" stop-color="rgb(61.886597%, 33.126831%, 79.508972%)" offset="0.421875"/><stop stop-opacity="1" stop-color="rgb(62.556458%, 34.301758%, 79.86908%)" offset="0.425781"/><stop stop-opacity="1" stop-color="rgb(63.226318%, 35.476685%, 80.229187%)" offset="0.429688"/><stop stop-opacity="1" stop-color="rgb(63.896179%, 36.651611%, 80.589294%)" offset="0.433594"/><stop stop-opacity="1" stop-color="rgb(64.56604%, 37.826538%, 80.949402%)" offset="0.4375"/><stop stop-opacity="1" stop-color="rgb(65.235901%, 39.001465%, 81.309509%)" offset="0.441406"/><stop stop-opacity="1" stop-color="rgb(65.905762%, 40.177917%, 81.669617%)" offset="0.445312"/><stop stop-opacity="1" stop-color="rgb(66.575623%, 41.352844%, 82.029724%)" offset="0.449219"/><stop stop-opacity="1" stop-color="rgb(67.245483%, 42.527771%, 82.389832%)" offset="0.453125"/><stop stop-opacity="1" stop-color="rgb(67.915344%, 43.702698%, 82.749939%)" offset="0.457031"/><stop stop-opacity="1" stop-color="rgb(68.585205%, 44.87915%, 83.110046%)" offset="0.460938"/><stop stop-opacity="1" stop-color="rgb(69.255066%, 46.054077%, 83.470154%)" offset="0.464844"/><stop stop-opacity="1" stop-color="rgb(69.924927%, 47.229004%, 83.830261%)" offset="0.46875"/><stop stop-opacity="1" stop-color="rgb(70.594788%, 48.403931%, 84.190369%)" offset="0.472656"/><stop stop-opacity="1" stop-color="rgb(71.264648%, 49.578857%, 84.550476%)" offset="0.476563"/><stop stop-opacity="1" stop-color="rgb(71.934509%, 50.753784%, 84.910583%)" offset="0.480469"/><stop stop-opacity="1" stop-color="rgb(72.60437%, 51.930237%, 85.270691%)" offset="0.484375"/><stop stop-opacity="1" stop-color="rgb(73.272705%, 53.105164%, 85.630798%)" offset="0.488281"/><stop stop-opacity="1" stop-color="rgb(73.942566%, 54.28009%, 85.990906%)" offset="0.492188"/><stop stop-opacity="1" stop-color="rgb(74.612427%, 55.455017%, 86.351013%)" offset="0.496094"/><stop stop-opacity="1" stop-color="rgb(75.282288%, 56.63147%, 86.711121%)" offset="0.5"/><stop stop-opacity="1" stop-color="rgb(75.952148%, 57.806396%, 87.071228%)" offset="0.503906"/><stop stop-opacity="1" stop-color="rgb(76.622009%, 58.981323%, 87.431335%)" offset="0.507812"/><stop stop-opacity="1" stop-color="rgb(77.29187%, 60.15625%, 87.791443%)" offset="0.511719"/><stop stop-opacity="1" stop-color="rgb(77.961731%, 61.332703%, 88.15155%)" offset="0.515625"/><stop stop-opacity="1" stop-color="rgb(78.631592%, 62.507629%, 88.511658%)" offset="0.519531"/><stop stop-opacity="1" stop-color="rgb(79.301453%, 63.682556%, 88.871765%)" offset="0.523438"/><stop stop-opacity="1" stop-color="rgb(79.971313%, 64.857483%, 89.231873%)" offset="0.527344"/><stop stop-opacity="1" stop-color="rgb(80.641174%, 66.03241%, 89.59198%)" offset="0.53125"/><stop stop-opacity="1" stop-color="rgb(81.311035%, 67.207336%, 89.952087%)" offset="0.535156"/><stop stop-opacity="1" stop-color="rgb(81.980896%, 68.383789%, 90.312195%)" offset="0.539062"/><stop stop-opacity="1" stop-color="rgb(82.650757%, 69.558716%, 90.672302%)" offset="0.542969"/><stop stop-opacity="1" stop-color="rgb(83.320618%, 70.733643%, 91.03241%)" offset="0.546875"/><stop stop-opacity="1" stop-color="rgb(83.990479%, 71.908569%, 91.392517%)" offset="0.550781"/><stop stop-opacity="1" stop-color="rgb(84.660339%, 73.085022%, 91.752625%)" offset="0.554688"/><stop stop-opacity="1" stop-color="rgb(85.3302%, 74.259949%, 92.112732%)" offset="0.558594"/><stop stop-opacity="1" stop-color="rgb(86.000061%, 75.434875%, 92.472839%)" offset="0.5625"/><stop stop-opacity="1" stop-color="rgb(86.669922%, 76.609802%, 92.832947%)" offset="0.566406"/><stop stop-opacity="1" stop-color="rgb(87.339783%, 77.784729%, 93.193054%)" offset="0.570313"/><stop stop-opacity="1" stop-color="rgb(88.008118%, 78.959656%, 93.553162%)" offset="0.574219"/><stop stop-opacity="1" stop-color="rgb(88.677979%, 80.136108%, 93.913269%)" offset="0.578125"/><stop stop-opacity="1" stop-color="rgb(89.347839%, 81.311035%, 94.273376%)" offset="0.582031"/><stop stop-opacity="1" stop-color="rgb(90.0177%, 82.485962%, 94.633484%)" offset="0.585938"/><stop stop-opacity="1" stop-color="rgb(90.687561%, 83.660889%, 94.993591%)" offset="0.589844"/><stop stop-opacity="1" stop-color="rgb(91.357422%, 84.837341%, 95.353699%)" offset="0.59375"/><stop stop-opacity="1" stop-color="rgb(92.027283%, 86.012268%, 95.713806%)" offset="0.597656"/><stop stop-opacity="1" stop-color="rgb(92.697144%, 87.187195%, 96.073914%)" offset="0.601562"/><stop stop-opacity="1" stop-color="rgb(93.367004%, 88.362122%, 96.434021%)" offset="0.605469"/><stop stop-opacity="1" stop-color="rgb(94.036865%, 89.537048%, 96.794128%)" offset="0.609375"/><stop stop-opacity="1" stop-color="rgb(94.706726%, 90.711975%, 97.154236%)" offset="0.613281"/><stop stop-opacity="1" stop-color="rgb(95.376587%, 91.888428%, 97.514343%)" offset="0.617188"/><stop stop-opacity="1" stop-color="rgb(96.046448%, 93.063354%, 97.874451%)" offset="0.621094"/><stop stop-opacity="1" stop-color="rgb(96.716309%, 94.238281%, 98.234558%)" offset="0.625"/><stop stop-opacity="1" stop-color="rgb(97.386169%, 95.413208%, 98.594666%)" offset="0.628906"/><stop stop-opacity="1" stop-color="rgb(98.05603%, 96.589661%, 98.954773%)" offset="0.632812"/><stop stop-opacity="1" stop-color="rgb(98.725891%, 97.764587%, 99.31488%)" offset="0.636719"/><stop stop-opacity="1" stop-color="rgb(99.395752%, 98.939514%, 99.674988%)" offset="0.640625"/><stop stop-opacity="1" stop-color="rgb(99.697876%, 99.468994%, 99.836731%)" offset="0.644531"/><stop stop-opacity="1" stop-color="rgb(100%, 100%, 100%)" offset="0.648438"/><stop stop-opacity="1" stop-color="rgb(100%, 100%, 100%)" offset="0.65625"/><stop stop-opacity="1" stop-color="rgb(100%, 100%, 100%)" offset="0.6875"/><stop stop-opacity="1" stop-color="rgb(100%, 100%, 100%)" offset="0.75"/><stop stop-opacity="1" stop-color="rgb(100%, 100%, 100%)" offset="1"/></linearGradient><clipPath id="4c246f82fc"><rect x="0" width="375" y="0" height="325"/></clipPath><clipPath id="eb39dc8539"><path d="M 0 0.601562 L 375 0.601562 L 375 325 L 0 325 Z M 0 0.601562 " clip-rule="nonzero"/></clipPath><clipPath id="cf3ccec94d"><rect x="0" width="375" y="0" height="325"/></clipPath><clipPath id="4344a236ab"><rect x="0" width="375" y="0" height="325"/></clipPath><mask id="b3b21ce638"><g filter="url(#533075478a)"><g transform="matrix(1, 0, 0, 1, 0, 0)"><g clip-path="url(#4344a236ab)"><g clip-path="url(#eb39dc8539)"><g transform="matrix(1, 0, 0, 1, 0, 0)"><g clip-path="url(#cf3ccec94d)"><g fill="#000000" fill-opacity="1"><g transform="translate(45.224613, 192.599993)"><g><path d="M 31.359375 0.640625 C 24.785156 0.640625 19.429688 -0.285156 15.296875 -2.140625 C 11.160156 -3.992188 8.109375 -6.648438 6.140625 -10.109375 C 4.179688 -13.566406 3.203125 -17.6875 3.203125 -22.46875 C 3.203125 -27.238281 4.179688 -31.332031 6.140625 -34.75 C 8.109375 -38.164062 11.160156 -40.800781 15.296875 -42.65625 C 19.429688 -44.507812 24.785156 -45.4375 31.359375 -45.4375 C 37.929688 -45.4375 43.285156 -44.507812 47.421875 -42.65625 C 51.554688 -40.800781 54.601562 -38.15625 56.5625 -34.71875 C 58.53125 -31.28125 59.515625 -27.195312 59.515625 -22.46875 C 59.515625 -17.726562 58.53125 -13.628906 56.5625 -10.171875 C 54.601562 -6.710938 51.554688 -4.046875 47.421875 -2.171875 C 43.285156 -0.296875 37.929688 0.640625 31.359375 0.640625 Z M 31.359375 -5.765625 C 35.921875 -5.765625 39.71875 -6.296875 42.75 -7.359375 C 45.78125 -8.421875 48.050781 -10.164062 49.5625 -12.59375 C 51.082031 -15.03125 51.84375 -18.320312 51.84375 -22.46875 C 51.84375 -26.601562 51.082031 -29.875 49.5625 -32.28125 C 48.050781 -34.695312 45.78125 -36.425781 42.75 -37.46875 C 39.71875 -38.519531 35.921875 -39.046875 31.359375 -39.046875 C 26.796875 -39.046875 23 -38.519531 19.96875 -37.46875 C 16.9375 -36.425781 14.660156 -34.695312 13.140625 -32.28125 C 11.628906 -29.875 10.875 -26.601562 10.875 -22.46875 C 10.875 -18.320312 11.628906 -15.019531 13.140625 -12.5625 C 14.660156 -10.113281 16.945312 -8.367188 20 -7.328125 C 23.050781 -6.285156 26.835938 -5.765625 31.359375 -5.765625 Z M 31.359375 -5.765625 "/></g></g></g><g fill="#000000" fill-opacity="1"><g transform="translate(105.380787, 192.599993)"><g><path d="M 29.3125 0.640625 C 24.320312 0.640625 19.851562 -0.0195312 15.90625 -1.34375 C 11.957031 -2.664062 8.851562 -4.734375 6.59375 -7.546875 C 4.332031 -10.367188 3.203125 -14.039062 3.203125 -18.5625 C 3.203125 -23.082031 4.332031 -26.75 6.59375 -29.5625 C 8.851562 -32.382812 11.957031 -34.457031 15.90625 -35.78125 C 19.851562 -37.101562 24.320312 -37.765625 29.3125 -37.765625 C 33.75 -37.765625 37.757812 -37.257812 41.34375 -36.25 C 44.925781 -35.25 47.910156 -33.660156 50.296875 -31.484375 C 52.691406 -29.304688 54.25 -26.492188 54.96875 -23.046875 L 47.171875 -23.046875 C 46.316406 -26.066406 44.34375 -28.207031 41.25 -29.46875 C 38.15625 -30.726562 34.175781 -31.359375 29.3125 -31.359375 C 25.5625 -31.359375 22.296875 -30.953125 19.515625 -30.140625 C 16.742188 -29.328125 14.609375 -27.984375 13.109375 -26.109375 C 11.617188 -24.234375 10.875 -21.71875 10.875 -18.5625 C 10.875 -15.40625 11.617188 -12.882812 13.109375 -11 C 14.609375 -9.125 16.742188 -7.78125 19.515625 -6.96875 C 22.296875 -6.164062 25.5625 -5.765625 29.3125 -5.765625 C 34.175781 -5.765625 38.15625 -6.390625 41.25 -7.640625 C 44.34375 -8.898438 46.316406 -11.046875 47.171875 -14.078125 L 54.96875 -14.078125 C 54.25 -10.617188 52.691406 -7.8125 50.296875 -5.65625 C 47.910156 -3.507812 44.925781 -1.921875 41.34375 -0.890625 C 37.757812 0.128906 33.75 0.640625 29.3125 0.640625 Z M 29.3125 0.640625 "/></g></g></g><g fill="#000000" fill-opacity="1"><g transform="translate(159.713291, 192.599993)"><g><path d="M 28.671875 0.640625 C 25.210938 0.640625 21.957031 0.28125 18.90625 -0.4375 C 15.863281 -1.164062 13.15625 -2.304688 10.78125 -3.859375 C 8.414062 -5.421875 6.5625 -7.414062 5.21875 -9.84375 C 3.875 -12.28125 3.203125 -15.1875 3.203125 -18.5625 C 3.203125 -23.082031 4.332031 -26.75 6.59375 -29.5625 C 8.851562 -32.382812 11.957031 -34.457031 15.90625 -35.78125 C 19.851562 -37.101562 24.320312 -37.765625 29.3125 -37.765625 C 32.632812 -37.765625 35.820312 -37.441406 38.875 -36.796875 C 41.925781 -36.160156 44.664062 -35.03125 47.09375 -33.40625 C 49.53125 -31.78125 51.453125 -29.5625 52.859375 -26.75 C 54.265625 -23.9375 54.96875 -20.351562 54.96875 -16 L 11.078125 -16 C 11.671875 -12.25 13.546875 -9.601562 16.703125 -8.0625 C 19.859375 -6.53125 23.847656 -5.765625 28.671875 -5.765625 C 33.234375 -5.765625 37.050781 -6.335938 40.125 -7.484375 C 43.195312 -8.640625 45.332031 -10.410156 46.53125 -12.796875 L 54.328125 -12.796875 C 53.390625 -9.765625 51.691406 -7.253906 49.234375 -5.265625 C 46.785156 -3.285156 43.800781 -1.804688 40.28125 -0.828125 C 36.769531 0.148438 32.898438 0.640625 28.671875 0.640625 Z M 11.328125 -22.40625 L 46.71875 -22.40625 C 45.820312 -25.6875 43.835938 -28 40.765625 -29.34375 C 37.691406 -30.6875 33.875 -31.359375 29.3125 -31.359375 C 24.238281 -31.359375 20.175781 -30.6875 17.125 -29.34375 C 14.070312 -28 12.140625 -25.6875 11.328125 -22.40625 Z M 11.328125 -22.40625 "/></g></g></g><g fill="#000000" fill-opacity="1"><g transform="translate(214.045795, 192.599993)"><g><path d="M 20.921875 0.640625 C 14.953125 0.640625 10.503906 -0.316406 7.578125 -2.234375 C 4.660156 -4.160156 3.203125 -7.273438 3.203125 -11.578125 C 3.203125 -14.015625 3.785156 -16.0625 4.953125 -17.71875 C 6.128906 -19.382812 7.757812 -20.726562 9.84375 -21.75 C 11.9375 -22.78125 14.359375 -23.53125 17.109375 -24 C 19.867188 -24.46875 22.804688 -24.703125 25.921875 -24.703125 C 29.585938 -24.703125 33.191406 -24.398438 36.734375 -23.796875 C 40.273438 -23.203125 43.5625 -22.414062 46.59375 -21.4375 C 46.59375 -23.269531 46.15625 -24.785156 45.28125 -25.984375 C 44.40625 -27.179688 43.265625 -28.140625 41.859375 -28.859375 C 40.453125 -29.585938 38.945312 -30.132812 37.34375 -30.5 C 35.738281 -30.863281 34.191406 -31.097656 32.703125 -31.203125 C 31.210938 -31.304688 29.953125 -31.359375 28.921875 -31.359375 C 26.453125 -31.359375 23.628906 -31.164062 20.453125 -30.78125 C 17.273438 -30.394531 13.59375 -29.5 9.40625 -28.09375 L 6.34375 -33.859375 C 10.175781 -35.097656 13.9375 -36.054688 17.625 -36.734375 C 21.320312 -37.421875 25.257812 -37.765625 29.4375 -37.765625 C 34.6875 -37.765625 39.15625 -37.175781 42.84375 -36 C 46.539062 -34.820312 49.359375 -32.867188 51.296875 -30.140625 C 53.234375 -27.410156 54.222656 -23.703125 54.265625 -19.015625 L 54.265625 0 L 46.59375 0 L 46.59375 -4.671875 C 44.207031 -3.859375 41.703125 -3.046875 39.078125 -2.234375 C 36.453125 -1.429688 33.644531 -0.75 30.65625 -0.1875 C 27.664062 0.363281 24.421875 0.640625 20.921875 0.640625 Z M 22.96875 -5.765625 C 25.144531 -5.765625 27.617188 -6 30.390625 -6.46875 C 33.171875 -6.9375 35.976562 -7.570312 38.8125 -8.375 C 41.65625 -9.1875 44.25 -10.085938 46.59375 -11.078125 L 46.59375 -15.046875 C 44.113281 -15.890625 41.195312 -16.640625 37.84375 -17.296875 C 34.5 -17.960938 30.609375 -18.296875 26.171875 -18.296875 C 23.191406 -18.296875 20.546875 -18.070312 18.234375 -17.625 C 15.929688 -17.175781 14.128906 -16.453125 12.828125 -15.453125 C 11.523438 -14.453125 10.875 -13.117188 10.875 -11.453125 C 10.875 -9.660156 11.382812 -8.359375 12.40625 -7.546875 C 13.4375 -6.742188 14.867188 -6.242188 16.703125 -6.046875 C 18.535156 -5.859375 20.625 -5.765625 22.96875 -5.765625 Z M 22.96875 -5.765625 "/></g></g></g><g fill="#000000" fill-opacity="1"><g transform="translate(269.594257, 192.599993)"><g><path d="M 3.84375 0 L 3.84375 -37.125 L 11.515625 -37.125 L 11.515625 -29.4375 C 14.460938 -31.957031 18.035156 -33.972656 22.234375 -35.484375 C 26.441406 -37.003906 31.019531 -37.765625 35.96875 -37.765625 C 38.738281 -37.765625 41.335938 -37.460938 43.765625 -36.859375 C 46.203125 -36.265625 48.359375 -35.285156 50.234375 -33.921875 C 52.117188 -32.554688 53.601562 -30.695312 54.6875 -28.34375 C 55.769531 -26 56.335938 -23.097656 56.390625 -19.640625 L 56.1875 0 L 48.515625 0 L 48.515625 -17.09375 C 48.515625 -20.113281 48.117188 -22.679688 47.328125 -24.796875 C 46.535156 -26.910156 45.15625 -28.53125 43.1875 -29.65625 C 41.226562 -30.789062 38.457031 -31.359375 34.875 -31.359375 C 32.53125 -31.359375 30.160156 -31.066406 27.765625 -30.484375 C 25.378906 -29.910156 23.128906 -29.132812 21.015625 -28.15625 C 18.910156 -27.175781 17.023438 -26.097656 15.359375 -24.921875 C 13.691406 -23.753906 12.410156 -22.570312 11.515625 -21.375 L 11.515625 0 Z M 3.84375 0 "/></g></g></g></g></g></g></g></g></g></mask><clipPath id="5b47d6d8e7"><path d="M 0 6.601562 L 375 6.601562 L 375 325 L 0 325 Z M 0 6.601562 " clip-rule="nonzero"/></clipPath><clipPath id="faa133c58b"><rect x="0" width="375" y="0" height="325"/></clipPath><clipPath id="76c0e717e9"><rect x="0" width="375" y="0" height="325"/></clipPath></defs><g clip-path="url(#585142b58e)"><g transform="matrix(1, 0, 0, 1, 0, 0)"><g clip-path="url(#cc8952cb3a)"><g clip-path="url(#9b8740a7d0)"><g mask="url(#84c0cb35e7)"><g transform="matrix(1, 0, 0, 1, 0, 0)"><g clip-path="url(#c0d68924f4)"><g clip-path="url(#994aa95a38)"><path fill="url(#dc72cac115)" d="M 0 0 L 0 317.652344 L 375 317.652344 L 375 0 Z M 0 0 " fill-rule="nonzero"/></g></g></g></g></g></g></g></g><g clip-path="url(#66ad786b38)"><g transform="matrix(1, 0, 0, 1, 0, 50)"><g clip-path="url(#76c0e717e9)"><g clip-path="url(#82c3246cb0)"><g mask="url(#b3b21ce638)"><g transform="matrix(1, 0, 0, 1, 0, 0)"><g clip-path="url(#faa133c58b)"><g clip-path="url(#5b47d6d8e7)"><path fill="url(#4ea6390a54)" d="M 0 6.601562 L 0 325 L 375 325 L 375 6.601562 Z M 0 6.601562 " fill-rule="nonzero"/></g></g></g></g></g></g></g></g></svg>